<?xml version="1.0" encoding="UTF-8"?>
<svg width="386px" height="411px" viewBox="0 0 386 411" version="1.1" xmlns="http://www.w3.org/2000/svg" xmlns:xlink="http://www.w3.org/1999/xlink">
    <!-- Generator: Sketch 52.5 (67469) - http://www.bohemiancoding.com/sketch -->
    <title>cooking</title>
    <desc>Created with Sketch.</desc>
    <g id="Page-1" stroke="none" stroke-width="1" fill="none" fill-rule="evenodd">
        <g id="cooking" fill="#8ED444" fill-rule="nonzero">
            <path d="M341.938,17.072 C338.033,13.167 338.033,6.835 341.938,2.93 C345.844,-0.976 352.174,-0.976 356.081,2.93 L357.426,4.274 C361.331,8.179 361.331,14.511 357.426,18.416 C355.473,20.369 352.914,21.345 350.355,21.345 C347.796,21.345 345.237,20.369 343.284,18.416 L341.938,17.072 Z M340.593,128.427 C356.54,128.427 369.515,141.401 369.515,157.347 C369.515,173.293 356.54,186.267 340.593,186.267 C324.646,186.267 311.672,173.293 311.672,157.347 C311.672,141.401 324.646,128.427 340.593,128.427 Z M340.593,148.427 C335.674,148.427 331.672,152.429 331.672,157.347 C331.672,162.266 335.674,166.267 340.593,166.267 C345.513,166.267 349.515,162.266 349.515,157.347 C349.515,152.429 345.513,148.427 340.593,148.427 Z M385.905,273.341 L385.905,285.331 C385.905,300.953 373.196,313.662 357.575,313.662 L349.243,313.662 L349.243,367.577 C349.243,391.282 329.958,410.567 306.253,410.567 L80.315,410.567 C56.611,410.567 37.326,391.282 37.326,367.577 L37.326,313.662 L28.994,313.662 C13.372,313.662 0.663,300.953 0.663,285.331 L0.663,273.341 C0.663,257.719 13.372,245.01 28.994,245.01 L37.326,245.01 L37.326,215.459 C37.326,209.936 41.804,205.459 47.326,205.459 L339.243,205.459 C344.765,205.459 349.243,209.936 349.243,215.459 L349.243,245.01 L357.575,245.01 C373.196,245.01 385.905,257.719 385.905,273.341 Z M37.325,265.01 L28.993,265.01 C24.399,265.01 20.662,268.747 20.662,273.341 L20.662,285.331 C20.662,289.925 24.399,293.662 28.993,293.662 L37.325,293.662 L37.325,265.01 Z M329.242,225.459 L57.325,225.459 L57.325,367.577 C57.325,380.254 67.638,390.567 80.314,390.567 L306.252,390.567 C318.929,390.567 329.242,380.254 329.242,367.577 L329.242,225.459 Z M365.905,273.341 C365.905,268.747 362.168,265.01 357.575,265.01 L349.243,265.01 L349.243,293.662 L357.575,293.662 C362.168,293.662 365.905,289.925 365.905,285.331 L365.905,273.341 Z M314.242,80.148 C316.8,80.148 319.358,79.172 321.31,77.222 L322.656,75.877 C326.563,71.973 326.565,65.642 322.661,61.735 C318.759,57.827 312.426,57.826 308.519,61.73 L307.173,63.075 C303.266,66.979 303.264,73.31 307.168,77.217 C309.121,79.171 311.682,80.148 314.242,80.148 Z M231.356,185.687 C231.356,191.21 235.834,195.687 241.356,195.687 C246.878,195.687 251.356,191.21 251.356,185.687 C251.356,177.788 257.783,171.361 265.681,171.361 C273.58,171.361 280.007,177.788 280.007,185.687 C280.007,191.21 284.485,195.687 290.007,195.687 C295.529,195.687 300.007,191.21 300.007,185.687 C300.007,166.76 284.609,151.361 265.681,151.361 C246.754,151.361 231.356,166.759 231.356,185.687 Z M44.58,170.719 C43.309,165.344 46.636,159.957 52.011,158.686 L160.647,133.001 L158.731,124.892 C155.137,109.689 164.582,94.397 179.784,90.804 L191.452,88.046 C206.649,84.452 221.946,93.895 225.541,109.097 L227.459,117.206 L336.094,91.52 C341.467,90.251 346.856,93.576 348.126,98.951 C349.397,104.326 346.07,109.713 340.695,110.984 L56.613,178.15 C55.84,178.333 55.065,178.421 54.303,178.421 C49.773,178.42 45.668,175.32 44.58,170.719 Z M178.194,120.291 L180.111,128.399 L207.995,121.806 L206.078,113.698 C205.173,109.87 201.744,107.283 197.971,107.283 C197.338,107.283 196.697,107.356 196.054,107.507 L184.386,110.266 C179.914,111.324 177.137,115.82 178.194,120.291 Z" id="Shape"></path>
        </g>
    </g>
</svg>