<?xml version="1.0" encoding="UTF-8"?>
<svg width="512px" height="328px" viewBox="0 0 512 328" version="1.1" xmlns="http://www.w3.org/2000/svg" xmlns:xlink="http://www.w3.org/1999/xlink">
    <!-- Generator: Sketch 52.5 (67469) - http://www.bohemiancoding.com/sketch -->
    <title>truck (1)</title>
    <desc>Created with Sketch.</desc>
    <g id="Page-1" stroke="none" stroke-width="1" fill="none" fill-rule="evenodd">
        <g id="heart-and-fork-inside" fill="#8ED444">
            <g id="truck-(1)">
                <path d="M112,264 C107.582,264 104,267.582 104,272 C104,276.411 100.411,280 96,280 C91.589,280 88,276.411 88,272 C88,267.589 91.589,264 96,264 C100.418,264 104,260.418 104,256 C104,251.582 100.418,248 96,248 C82.766,248 72,258.767 72,272 C72,285.233 82.766,296 96,296 C109.234,296 120,285.233 120,272 C120,267.582 116.418,264 112,264 Z" id="Path"></path>
                <path d="M432,264 C427.582,264 424,267.582 424,272 C424,276.411 420.411,280 416,280 C411.589,280 408,276.411 408,272 C408,267.589 411.589,264 416,264 C420.418,264 424,260.418 424,256 C424,251.582 420.418,248 416,248 C402.766,248 392,258.767 392,272 C392,285.233 402.766,296 416,296 C429.234,296 440,285.233 440,272 C440,267.582 436.418,264 432,264 Z" id="Path"></path>
                <path d="M512,160 C512,157.769 511.085,155.753 509.612,154.302 C506.191,144.847 499.26,136.908 489.889,132.222 C489.639,132.097 489.384,131.986 489.122,131.888 L462.683,121.963 L446.577,60.768 C446.554,60.68 446.53,60.592 446.503,60.505 C441.389,43.456 425.992,32 408.191,32 L352,32 L352,16 C352,7.178 344.822,0 336,0 L16,0 C7.178,0 0,7.178 0,16 L0,240 C0,248.822 7.178,256 16,256 L42.341,256 C41.566,258.594 40.973,261.265 40.58,264 L8,264 C3.582,264 0,267.582 0,272 C0,276.418 3.582,280 8,280 L40.581,280 C44.476,307.102 67.839,328 96,328 C124.161,328 147.525,307.102 151.419,280 L168,280 C168,293.233 178.766,304 192,304 L240,304 C253.234,304 264,293.233 264,280 L360.581,280 C364.476,307.102 387.839,328 416,328 C444.161,328 467.525,307.102 471.419,280 L504,280 C508.418,280 512,276.418 512,272 C512,267.582 508.418,264 504,264 L471.419,264 C471.026,261.265 470.433,258.594 469.658,256 L496,256 C504.822,256 512,248.822 512,240 L512,168 C512,166.12 511.869,164.265 511.617,162.442 C511.864,161.672 512,160.852 512,160 Z M496,208 L488,208 L488,200 L496,200 L496,208 Z M489.899,152 L352,152 L352,136 L454.549,136 L483.08,146.71 C485.708,148.077 487.998,149.881 489.899,152 Z M408.191,48 C418.829,48 428.037,54.819 431.142,64.982 L445.622,120 L352,120 L352,48 L408.191,48 Z M48.001,240 L16,240 L16,200 L264.004,200 C268.422,200 272.004,196.418 272.004,192 C272.004,187.582 268.422,184 264.004,184 L16,184 L16,16 L336,16 L336,240 L240,240 L192,240 L144.002,240 C143.341,240 142.702,240.089 142.087,240.24 C131.975,225.61 115.092,216 96,216 C76.908,216 60.026,225.61 49.913,240.24 C49.299,240.089 48.661,240 48.001,240 Z M96,312 C73.944,312 56,294.056 56,272 C56,249.944 73.944,232 96,232 C118.056,232 136,249.944 136,272 C136,294.056 118.056,312 96,312 Z M151.419,264 C151.026,261.265 150.433,258.594 149.658,256 L169.376,256 C168.488,258.504 168,261.196 168,264 L151.419,264 Z M248,280 C248,284.411 244.411,288 240,288 L192,288 C187.589,288 184,284.411 184,280 L184,272.019 C184,272.012 184.001,272.006 184.001,272 C184.001,271.994 184,271.987 184,271.981 L184,264 C184,259.589 187.589,256 192,256 L240,256 C244.411,256 248,259.589 248,264 L248,280 Z M262.624,256 L344,256 L362.341,256 C361.566,258.594 360.973,261.265 360.58,264 L264,264 C264,261.196 263.512,258.504 262.624,256 Z M416,312 C393.944,312 376,294.056 376,272 C376,249.944 393.944,232 416,232 C438.056,232 456,249.944 456,272 C456,294.056 438.056,312 416,312 Z M464,240 C463.34,240 462.701,240.089 462.087,240.24 C451.974,225.61 435.092,216 416,216 C396.908,216 380.026,225.61 369.913,240.24 C369.299,240.089 368.661,240 368.001,240 L352.001,240 L352.001,168 L496.001,168 L496.001,184 L488.001,184 C479.179,184 472.001,191.178 472.001,200 L472.001,208 C472.001,216.822 479.179,224 488.001,224 L496.001,224 L496.001,240 L464,240 Z" id="Shape" fill-rule="nonzero"></path>
                <path d="M200,264 C197.89,264 195.83,264.859 194.34,266.34 C192.85,267.83 192,269.9 192,272 C192,274.109 192.85,276.17 194.34,277.66 C195.83,279.149 197.89,280 200,280 C202.11,280 204.17,279.149 205.66,277.66 C207.15,276.17 208,274.099 208,272 C208,269.899 207.15,267.83 205.66,266.34 C204.17,264.859 202.11,264 200,264 Z" id="Path"></path>
                <path d="M296.004,200 L312,200 C316.418,200 320,196.418 320,192 C320,187.582 316.418,184 312,184 L296.004,184 C291.586,184 288.004,187.582 288.004,192 C288.004,196.418 291.585,200 296.004,200 Z" id="Path"></path>
            </g>
        </g>
    </g>
</svg>