<?xml version="1.0" encoding="UTF-8"?>
<svg width="429px" height="512px" viewBox="0 0 429 512" version="1.1" xmlns="http://www.w3.org/2000/svg" xmlns:xlink="http://www.w3.org/1999/xlink">
    <!-- Generator: Sketch 52.5 (67469) - http://www.bohemiancoding.com/sketch -->
    <title>menu</title>
    <desc>Created with Sketch.</desc>
    <g id="Page-1" stroke="none" stroke-width="1" fill="none" fill-rule="evenodd">
        <g id="menu" fill="#8ED444">
            <path d="M135.746094,380.710938 C134.757812,382.507812 133.226562,383.046875 131.789062,383.046875 C130.351562,383.046875 128.914062,382.507812 127.925781,380.710938 L117.585938,361.292969 L117.585938,400.664062 C117.585938,403.09375 114.621094,404.351562 111.746094,404.351562 C108.777344,404.351562 105.902344,403.09375 105.902344,400.664062 L105.902344,344.480469 C105.902344,340.167969 108.777344,338.640625 111.746094,338.640625 C115.96875,338.640625 117.859375,339.539062 120.824219,344.839844 L131.882812,364.976562 L142.9375,344.839844 C145.90625,339.539062 147.882812,338.640625 152.109375,338.640625 C155.074219,338.640625 157.949219,340.167969 157.949219,344.480469 L157.949219,400.664062 C157.949219,403.09375 154.984375,404.351562 152.109375,404.351562 C149.140625,404.351562 146.265625,403.09375 146.265625,400.664062 L146.265625,362.011719 L135.746094,380.710938 Z" id="Path"></path>
            <path d="M190.484375,366.863281 L204.148438,366.863281 C206.484375,366.863281 207.832031,369.113281 207.832031,371.539062 C207.832031,373.605469 206.664062,376.035156 204.148438,376.035156 L190.484375,376.035156 L190.484375,394.101562 L215.921875,394.101562 C218.261719,394.101562 219.609375,396.527344 219.609375,399.316406 C219.609375,401.742188 218.441406,404.351562 215.921875,404.351562 L183.921875,404.351562 C181.316406,404.351562 178.796875,403.089844 178.796875,400.664062 L178.796875,342.324219 C178.796875,339.898438 181.3125,338.636719 183.921875,338.636719 L215.921875,338.636719 C218.441406,338.636719 219.609375,341.246094 219.609375,343.671875 C219.609375,346.460938 218.261719,348.886719 215.921875,348.886719 L190.484375,348.886719 L190.484375,366.863281 Z" id="Path"></path>
            <path d="M267.519531,400.664062 L248.191406,364.527344 L248.191406,400.664062 C248.191406,403.09375 245.226562,404.351562 242.347656,404.351562 C239.382812,404.351562 236.503906,403.09375 236.503906,400.664062 L236.503906,342.324219 C236.503906,339.808594 239.382812,338.640625 242.347656,338.640625 C246.574219,338.640625 248.28125,339.539062 251.070312,344.839844 L268.417969,378.371094 L268.417969,342.234375 C268.417969,339.71875 271.292969,338.636719 274.261719,338.636719 C277.136719,338.636719 280.101562,339.714844 280.101562,342.234375 L280.101562,400.664062 C280.101562,403.089844 277.136719,404.351562 274.261719,404.351562 C271.472656,404.351562 269.046875,403.453125 267.519531,400.664062 Z" id="Path"></path>
            <path d="M332.148438,342.234375 C332.148438,339.71875 335.023438,338.640625 337.988281,338.640625 C340.867188,338.640625 343.832031,339.71875 343.832031,342.234375 L343.832031,384.304688 C343.832031,399.316406 334.304688,404.890625 322.257812,404.890625 C310.121094,404.890625 300.683594,399.316406 300.683594,384.304688 L300.683594,342.234375 C300.683594,339.71875 303.558594,338.640625 306.527344,338.640625 C309.402344,338.640625 312.367188,339.71875 312.367188,342.234375 L312.367188,384.304688 C312.367188,391.316406 316.054688,394.644531 322.257812,394.644531 C328.460938,394.644531 332.144531,391.316406 332.144531,384.304688 L332.144531,342.234375 L332.148438,342.234375 Z" id="Path"></path>
            <path d="M355.257812,422.148438 L312.527344,422.148438 C308.332031,422.148438 304.933594,425.546875 304.933594,429.738281 C304.933594,433.933594 308.332031,437.328125 312.527344,437.328125 L355.257812,437.328125 C359.453125,437.328125 362.847656,433.933594 362.847656,429.738281 C362.847656,425.546875 359.453125,422.148438 355.257812,422.148438 Z" id="Path"></path>
            <path d="M277.207031,422.148438 L104.265625,422.148438 C100.074219,422.148438 96.675781,425.546875 96.675781,429.738281 C96.675781,433.933594 100.074219,437.328125 104.265625,437.328125 L277.207031,437.328125 C281.402344,437.328125 284.796875,433.933594 284.796875,429.738281 C284.796875,425.546875 281.402344,422.148438 277.207031,422.148438 Z" id="Path"></path>
            <path d="M355.257812,306.242188 L104.265625,306.242188 C100.074219,306.242188 96.675781,309.640625 96.675781,313.832031 C96.675781,318.023438 100.074219,321.421875 104.265625,321.421875 L355.257812,321.421875 C359.453125,321.421875 362.847656,318.023438 362.847656,313.832031 C362.847656,309.640625 359.453125,306.242188 355.257812,306.242188 Z" id="Path"></path>
            <path d="M351.035156,212.128906 L343.667969,212.128906 C340.824219,159.828125 302.59375,116.789062 252.558594,106.601562 L254.023438,92.597656 C254.503906,88.027344 253.011719,83.449219 249.9375,80.039062 C246.863281,76.625 242.464844,74.667969 237.871094,74.667969 L221.65625,74.667969 C217.058594,74.667969 212.664062,76.628906 209.585938,80.039062 C206.511719,83.453125 205.023438,88.03125 205.503906,92.597656 L206.96875,106.601562 C156.933594,116.789062 118.703125,159.824219 115.859375,212.125 L108.492188,212.125 C101.976562,212.125 96.675781,217.425781 96.675781,223.941406 L96.675781,239.605469 C96.675781,246.121094 101.976562,251.421875 108.492188,251.421875 L351.03125,251.421875 C357.546875,251.421875 362.847656,246.121094 362.847656,239.605469 L362.847656,223.941406 C362.847656,217.429688 357.550781,212.128906 351.035156,212.128906 Z M220.867188,90.199219 C221.078125,89.96875 221.339844,89.851562 221.65625,89.851562 L237.871094,89.851562 C238.183594,89.851562 238.449219,89.96875 238.660156,90.199219 C238.871094,90.433594 238.960938,90.710938 238.925781,91.019531 L237.507812,104.582031 C234.949219,104.410156 232.367188,104.3125 229.765625,104.3125 C227.160156,104.3125 224.582031,104.410156 222.023438,104.582031 L220.601562,91.019531 C220.570312,90.710938 220.660156,90.433594 220.867188,90.199219 Z M347.667969,236.242188 L111.859375,236.242188 L111.859375,227.308594 L143.847656,227.308594 C148.042969,227.308594 151.441406,223.910156 151.441406,219.71875 C151.441406,215.527344 148.042969,212.128906 143.847656,212.128906 L131.070312,212.128906 C134.3125,160.503906 177.335938,119.496094 229.761719,119.496094 C282.191406,119.496094 325.214844,160.503906 328.457031,212.128906 L179.167969,212.128906 C174.972656,212.128906 171.578125,215.527344 171.578125,219.71875 C171.578125,223.910156 174.972656,227.308594 179.167969,227.308594 L347.667969,227.308594 L347.667969,236.242188 Z" id="Shape" fill-rule="nonzero"></path>
            <path d="M409.484375,0 L50.042969,0 C39.386719,0 30.714844,8.671875 30.714844,19.328125 L30.714844,33.039062 L23.632812,33.039062 C10.601562,33.039062 2.84217094e-14,43.644531 2.84217094e-14,56.675781 C2.84217094e-14,69.707031 10.601562,80.3125 23.632812,80.3125 L30.714844,80.3125 L30.714844,112.769531 L23.632812,112.769531 C10.601562,112.769531 2.84217094e-14,123.371094 2.84217094e-14,136.40625 C2.84217094e-14,149.4375 10.601562,160.039062 23.632812,160.039062 L30.714844,160.039062 L30.714844,192.5 L23.632812,192.5 C10.601562,192.5 2.84217094e-14,203.101562 2.84217094e-14,216.136719 C2.84217094e-14,229.167969 10.601562,239.769531 23.632812,239.769531 L30.714844,239.769531 L30.714844,272.230469 L23.632812,272.230469 C10.601562,272.230469 2.84217094e-14,282.832031 2.84217094e-14,295.863281 C2.84217094e-14,308.898438 10.601562,319.5 23.632812,319.5 L30.714844,319.5 L30.714844,351.960938 L23.632812,351.960938 C10.601562,351.960938 2.84217094e-14,362.5625 2.84217094e-14,375.59375 C2.84217094e-14,388.628906 10.601562,399.230469 23.632812,399.230469 L30.714844,399.230469 L30.714844,431.691406 L23.632812,431.691406 C10.601562,431.691406 2.84217094e-14,442.292969 2.84217094e-14,455.324219 C2.84217094e-14,468.355469 10.601562,478.960938 23.632812,478.960938 L30.714844,478.960938 L30.714844,492.671875 C30.714844,503.328125 39.386719,512 50.042969,512 L409.484375,512 C420.140625,512 428.816406,503.328125 428.816406,492.671875 L428.816406,19.328125 C428.816406,8.671875 420.140625,-5.68434189e-14 409.484375,0 Z M30.710938,65.132812 L23.632812,65.132812 C18.972656,65.132812 15.179688,61.339844 15.179688,56.675781 C15.179688,52.015625 18.972656,48.222656 23.632812,48.222656 L30.710938,48.222656 L30.710938,65.132812 Z M30.710938,144.859375 L23.632812,144.859375 C18.972656,144.859375 15.179688,141.066406 15.179688,136.40625 C15.179688,131.742188 18.972656,127.953125 23.632812,127.953125 L30.710938,127.953125 L30.710938,144.859375 Z M30.710938,224.589844 L23.632812,224.589844 C18.972656,224.589844 15.179688,220.796875 15.179688,216.136719 C15.179688,211.472656 18.972656,207.679688 23.632812,207.679688 L30.710938,207.679688 L30.710938,224.589844 Z M30.710938,304.320312 L23.632812,304.320312 C18.972656,304.320312 15.179688,300.527344 15.179688,295.863281 C15.179688,291.203125 18.972656,287.410156 23.632812,287.410156 L30.710938,287.410156 L30.710938,304.320312 Z M30.710938,384.046875 L23.632812,384.046875 C18.972656,384.046875 15.179688,380.257812 15.179688,375.59375 C15.179688,370.933594 18.972656,367.140625 23.632812,367.140625 L30.710938,367.140625 L30.710938,384.046875 Z M30.710938,463.777344 L23.632812,463.777344 C18.972656,463.777344 15.179688,459.984375 15.179688,455.324219 C15.179688,450.660156 18.972656,446.871094 23.632812,446.871094 L30.710938,446.871094 L30.710938,463.777344 Z M413.632812,492.667969 C413.632812,494.957031 411.773438,496.820312 409.484375,496.820312 L50.042969,496.820312 C47.753906,496.820312 45.894531,494.957031 45.894531,492.667969 L45.894531,19.328125 C45.894531,17.042969 47.753906,15.179688 50.042969,15.179688 L409.484375,15.179688 C411.773438,15.179688 413.632812,17.042969 413.632812,19.328125 L413.632812,492.667969 Z" id="Shape" fill-rule="nonzero"></path>
        </g>
    </g>
</svg>